<svg width="138" height="192" viewBox="0 0 138 192" fill="none" xmlns="http://www.w3.org/2000/svg">
<rect y="9.70786" width="137.432" height="14.0225" fill="#929292"/>
<rect y="32.3596" width="137.432" height="14.0225" fill="#929292"/>
<rect y="55.0112" width="137.432" height="14.0225" fill="#929292"/>
<rect y="77.6629" width="137.432" height="14.0225" fill="#929292"/>
<rect y="100.315" width="137.432" height="14.0225" fill="#929292"/>
<rect y="122.966" width="137.432" height="14.0225" fill="#929292"/>
<rect y="145.618" width="137.432" height="14.0225" fill="#929292"/>
<rect y="168.27" width="137.432" height="14.0225" fill="#929292"/>
<rect x="14.0678" width="108.214" height="192" fill="#525252"/>
<path d="M51.9325 156C52.0605 152.373 52.2098 148.619 52.3805 144.736C52.5511 140.811 52.7218 136.907 52.8925 133.024C53.1058 129.099 53.3405 125.323 53.5965 121.696C53.8525 118.069 54.1511 114.72 54.4925 111.648H61.7885C62.2578 113.013 62.8551 114.848 63.5805 117.152C64.3058 119.413 65.0525 121.803 65.8205 124.32C66.6311 126.837 67.3778 129.163 68.0605 131.296C68.8711 128.907 69.6605 126.475 70.4285 124C71.2391 121.483 72.0071 119.136 72.7325 116.96C73.4578 114.784 74.0551 113.013 74.5245 111.648H81.8205C82.2898 116.811 82.6951 121.824 83.0365 126.688C83.4205 131.509 83.7191 136.331 83.9325 141.152C84.1885 145.931 84.3591 150.88 84.4445 156H76.3805C76.4231 152.16 76.4658 148.341 76.5085 144.544C76.5511 140.704 76.5938 136.864 76.6365 133.024C76.6791 129.141 76.7218 125.301 76.7645 121.504L71.3245 140.32H64.8605L59.6765 121.504C59.7191 125.301 59.7405 129.141 59.7405 133.024C59.7831 136.864 59.8258 140.704 59.8685 144.544C59.9111 148.341 59.9538 152.16 59.9965 156H51.9325Z" fill="white"/>
<path d="M65.8845 79.96C63.9218 79.96 62.1511 79.768 60.5725 79.384C59.0365 79.0427 57.6711 78.5733 56.4765 77.976C55.2818 77.3787 54.2151 76.7173 53.2765 75.992L56.6685 68.952C57.8631 69.72 59.1858 70.4667 60.6365 71.192C62.0871 71.9173 63.5805 72.28 65.1165 72.28C67.4205 72.28 69.2765 71.6613 70.6845 70.424C72.0925 69.1867 72.7965 66.9253 72.7965 63.64V41.944H57.9485V34.648H81.6925V64.152C81.6925 67.0533 81.1805 69.6987 80.1565 72.088C79.1325 74.4773 77.4471 76.3973 75.1005 77.848C72.7965 79.256 69.7245 79.96 65.8845 79.96Z" fill="white"/>
</svg>
